<svg width="10" height="13" viewBox="0 0 10 13" fill="none" xmlns="http://www.w3.org/2000/svg">
<path d="M0.594 6.952H1.872V0.526C2.328 0.418 2.814 0.345999 3.33 0.309999C3.858 0.274 4.38 0.256 4.896 0.256C5.448 0.256 5.988 0.31 6.516 0.417999C7.056 0.525999 7.53 0.723999 7.938 1.012C8.358 1.3 8.694 1.69 8.946 2.182C9.198 2.674 9.324 3.304 9.324 4.072C9.324 4.828 9.192 5.458 8.928 5.962C8.676 6.466 8.334 6.874 7.902 7.186C7.482 7.498 6.996 7.72 6.444 7.852C5.904 7.984 5.352 8.056 4.788 8.068L3.366 8.086V9.364H6.354V10.48H3.366V13H1.872V10.48H0.594V9.364H1.872V8.068H0.594V6.952ZM4.932 1.516C4.62 1.516 4.32 1.528 4.032 1.552C3.756 1.564 3.534 1.588 3.366 1.624V6.844H4.734C5.094 6.844 5.454 6.808 5.814 6.736C6.174 6.664 6.498 6.526 6.786 6.322C7.074 6.118 7.308 5.842 7.488 5.494C7.668 5.134 7.752 4.666 7.74 4.09C7.752 3.598 7.68 3.19 7.524 2.866C7.38 2.53 7.176 2.266 6.912 2.074C6.66 1.87 6.36 1.726 6.012 1.642C5.676 1.558 5.316 1.516 4.932 1.516Z" fill="white"/>
</svg>
